# xmcd CD database file
#
# Track frame offsets:
#	150
#	12507
#	27762
#	42676
#	57778
#	70718
#	85143
#	99312
#	112832
#	136128
#	150379
#	163887
#	178148
#	191970
#	206069
#	220151
#	235235
#	250584
#
# Disc length: 3527 seconds
#
# Revision: 1
# Processed by: cddbd v1.5.2PL0 Copyright (c) Steve Scherf et al.
# Submitted via: CDex 1.70beta2
#
DISCID=f30dc512
DTITLE=Guilherme e Falcão - ao vivo
DYEAR=2008
DGENRE=Country
TTITLE0=Alô Moçada
TTITLE1=Anjo
TTITLE2=Ciumenta Demais 
TTITLE3=Resposta do Cowboy
TTITLE4=De CG a Cuiabá
TTITLE5=Risca Faca
TTITLE6=Anunciação
TTITLE7=Astronauta de Mármore 
TTITLE8=Te Cuida Coração and Doce Paixão
TTITLE9=Não Acredito
TTITLE10=Seguindo Seus Passos 
TTITLE11=Pode Ser Pra Valer 
TTITLE12=Tô Nem Ai
TTITLE13=Contei as Lágrimas and Duas Camisas
TTITLE14=Zona 
TTITLE15=O Ultimo dos Apaixonados 
TTITLE16=Cobertor 
TTITLE17=Princesa
EXTD=YEAR: 2008
EXTT0=
EXTT1=
EXTT2=
EXTT3=
EXTT4=
EXTT5=
EXTT6=
EXTT7=
EXTT8=
EXTT9=
EXTT10=
EXTT11=
EXTT12=
EXTT13=
EXTT14=
EXTT15=
EXTT16=
EXTT17=
PLAYORDER=
